<?xml version="1.0" encoding="UTF-8"?>
<!DOCTYPE svg PUBLIC "-//W3C//DTD SVG 1.1//EN" "http://www.w3.org/Graphics/SVG/1.1/DTD/svg11.dtd">
<svg xmlns="http://www.w3.org/2000/svg" version="1.1" width="512px" height="512px" style="shape-rendering:geometricPrecision; text-rendering:geometricPrecision; image-rendering:optimizeQuality; fill-rule:evenodd; clip-rule:evenodd" xmlns:xlink="http://www.w3.org/1999/xlink">
<g><path style="opacity:0.989" fill="#fdc64f" d="M 420.5,26.5 C 420.5,41.8333 420.5,57.1667 420.5,72.5C 417.941,72.1984 415.607,72.5318 413.5,73.5C 392.5,73.5 371.5,73.5 350.5,73.5C 329.5,73.5 308.5,73.5 287.5,73.5C 266.167,73.5 244.833,73.5 223.5,73.5C 202.5,73.5 181.5,73.5 160.5,73.5C 139.5,73.5 118.5,73.5 97.5,73.5C 76.5,73.5 55.5,73.5 34.5,73.5C 34.3334,59.8293 34.5001,46.1626 35,32.5C 36.1667,30 38,28.1667 40.5,27C 167.166,26.5 293.833,26.3333 420.5,26.5 Z"/></g>
<g><path style="opacity:1" fill="#fca629" d="M 420.5,26.5 C 437.928,26.028 455.261,26.528 472.5,28C 474.049,29.214 475.215,30.714 476,32.5C 476.5,46.1626 476.667,59.8293 476.5,73.5C 455.5,73.5 434.5,73.5 413.5,73.5C 415.607,72.5318 417.941,72.1984 420.5,72.5C 420.5,57.1667 420.5,41.8333 420.5,26.5 Z"/></g>
<g><path style="opacity:0.99" fill="#fc502a" d="M 34.5,73.5 C 55.5,73.5 76.5,73.5 97.5,73.5C 89.3029,96.0911 81.3029,118.758 73.5,141.5C 72.8333,141.5 72.5,141.833 72.5,142.5C 48.1667,142.5 23.8333,142.5 -0.5,142.5C -0.5,142.167 -0.5,141.833 -0.5,141.5C 11.1667,118.833 22.8333,96.1667 34.5,73.5 Z"/></g>
<g><path style="opacity:1" fill="#fffefe" d="M 97.5,73.5 C 118.5,73.5 139.5,73.5 160.5,73.5C 155.833,96.1702 151.166,118.837 146.5,141.5C 145.833,141.5 145.5,141.833 145.5,142.5C 121.5,142.5 97.5,142.5 73.5,142.5C 73.5,142.167 73.5,141.833 73.5,141.5C 81.3029,118.758 89.3029,96.0911 97.5,73.5 Z"/></g>
<g><path style="opacity:1" fill="#fc502a" d="M 160.5,73.5 C 181.5,73.5 202.5,73.5 223.5,73.5C 221.926,94.4839 220.592,115.484 219.5,136.5C 218.539,138.265 218.205,140.265 218.5,142.5C 194.328,142.831 170.328,142.498 146.5,141.5C 151.166,118.837 155.833,96.1702 160.5,73.5 Z"/></g>
<g><path style="opacity:1" fill="#fffdfd" d="M 223.5,73.5 C 244.833,73.5 266.167,73.5 287.5,73.5C 289.037,95.1535 290.371,116.82 291.5,138.5C 291.5,139.833 291.5,141.167 291.5,142.5C 267.5,142.5 243.5,142.5 219.5,142.5C 219.5,140.5 219.5,138.5 219.5,136.5C 220.592,115.484 221.926,94.4839 223.5,73.5 Z"/></g>
<g><path style="opacity:1" fill="#fc502a" d="M 287.5,73.5 C 308.5,73.5 329.5,73.5 350.5,73.5C 355.167,96.5036 359.834,119.504 364.5,142.5C 340.5,142.5 316.5,142.5 292.5,142.5C 292.768,140.901 292.434,139.568 291.5,138.5C 290.371,116.82 289.037,95.1535 287.5,73.5 Z"/></g>
<g><path style="opacity:1" fill="#fefefd" d="M 350.5,73.5 C 371.5,73.5 392.5,73.5 413.5,73.5C 421.786,96.4043 429.786,119.404 437.5,142.5C 413.5,142.5 389.5,142.5 365.5,142.5C 365.167,142.5 364.833,142.5 364.5,142.5C 359.834,119.504 355.167,96.5036 350.5,73.5 Z"/></g>
<g><path style="opacity:0.99" fill="#fb502a" d="M 413.5,73.5 C 434.5,73.5 455.5,73.5 476.5,73.5C 488.167,96.1667 499.833,118.833 511.5,141.5C 511.5,141.833 511.5,142.167 511.5,142.5C 487.167,142.5 462.833,142.5 438.5,142.5C 438.167,142.5 437.833,142.5 437.5,142.5C 429.786,119.404 421.786,96.4043 413.5,73.5 Z"/></g>
<g><path style="opacity:1" fill="#f1f1f1" d="M 365.5,142.5 C 389.5,142.5 413.5,142.5 437.5,142.5C 437.667,155.171 437.5,167.838 437,180.5C 434.432,191.314 428.266,199.314 418.5,204.5C 401.376,212.308 386.209,209.308 373,195.5C 369.863,190.892 367.53,185.892 366,180.5C 365.5,167.838 365.333,155.171 365.5,142.5 Z"/></g>
<g><path style="opacity:0.989" fill="#e60f28" d="M -0.5,142.5 C 23.8333,142.5 48.1667,142.5 72.5,142.5C 72.6666,155.171 72.4999,167.838 72,180.5C 66.5922,198.626 54.4256,208.293 35.5,209.5C 16.0306,207.689 4.03058,197.356 -0.5,178.5C -0.5,166.5 -0.5,154.5 -0.5,142.5 Z"/></g>
<g><path style="opacity:1" fill="#e61329" d="M 291.5,138.5 C 292.434,139.568 292.768,140.901 292.5,142.5C 316.5,142.5 340.5,142.5 364.5,142.5C 364.667,155.171 364.5,167.838 364,180.5C 356.921,201.966 342.088,211.133 319.5,208C 302.68,202.503 293.346,191.003 291.5,173.5C 291.5,163.167 291.5,152.833 291.5,142.5C 291.5,141.167 291.5,139.833 291.5,138.5 Z"/></g>
<g><path style="opacity:0.989" fill="#e60f28" d="M 438.5,142.5 C 462.833,142.5 487.167,142.5 511.5,142.5C 511.5,154.5 511.5,166.5 511.5,178.5C 506.969,197.356 494.969,207.689 475.5,209.5C 456.638,208.313 444.471,198.646 439,180.5C 438.5,167.838 438.333,155.171 438.5,142.5 Z"/></g>
<g><path style="opacity:0.995" fill="#e9e9ea" d="M 219.5,136.5 C 219.5,138.5 219.5,140.5 219.5,142.5C 219.071,156.559 219.571,170.559 221,184.5C 230.431,204.608 245.931,212.108 267.5,207C 282.5,200.829 290.5,189.662 291.5,173.5C 293.346,191.003 302.68,202.503 319.5,208C 342.088,211.133 356.921,201.966 364,180.5C 364.5,167.838 364.667,155.171 364.5,142.5C 364.833,142.5 365.167,142.5 365.5,142.5C 365.333,155.171 365.5,167.838 366,180.5C 367.53,185.892 369.863,190.892 373,195.5C 386.209,209.308 401.376,212.308 418.5,204.5C 418.5,220.167 418.5,235.833 418.5,251.5C 406.5,251.5 394.5,251.5 382.5,251.5C 323.499,251.333 264.499,251.5 205.5,252C 203.061,252.774 201.227,254.274 200,256.5C 199.333,298.833 199.333,341.167 200,383.5C 200.398,386.232 201.898,388.065 204.5,389C 263.832,389.5 323.166,389.667 382.5,389.5C 394.5,389.5 406.5,389.5 418.5,389.5C 418.5,405.5 418.5,421.5 418.5,437.5C 335.167,437.5 251.833,437.5 168.5,437.5C 168.667,377.166 168.5,316.832 168,256.5C 167.125,253.785 165.292,252.452 162.5,252.5C 132.336,251.336 102.003,251.169 71.5,252C 69.6711,252.273 68.1711,253.107 67,254.5C 65.5076,315.75 65.0076,377.083 65.5,438.5C 55.4176,438.807 45.4176,438.474 35.5,437.5C 35.5,361.5 35.5,285.5 35.5,209.5C 54.4256,208.293 66.5922,198.626 72,180.5C 72.4999,167.838 72.6666,155.171 72.5,142.5C 72.5,141.833 72.8333,141.5 73.5,141.5C 73.5,141.833 73.5,142.167 73.5,142.5C 73.3334,155.504 73.5001,168.504 74,181.5C 79.6723,198.592 91.5056,207.926 109.5,209.5C 131.227,207.106 143.227,195.106 145.5,173.5C 151.368,202.282 168.702,213.115 197.5,206C 208.381,200.782 215.215,192.282 218,180.5C 218.5,167.838 218.667,155.171 218.5,142.5C 218.205,140.265 218.539,138.265 219.5,136.5 Z"/></g>
<g><path style="opacity:1" fill="#f2f2f2" d="M 219.5,142.5 C 243.5,142.5 267.5,142.5 291.5,142.5C 291.5,152.833 291.5,163.167 291.5,173.5C 290.5,189.662 282.5,200.829 267.5,207C 245.931,212.108 230.431,204.608 221,184.5C 219.571,170.559 219.071,156.559 219.5,142.5 Z"/></g>
<g><path style="opacity:1" fill="#e61329" d="M 146.5,141.5 C 170.328,142.498 194.328,142.831 218.5,142.5C 218.667,155.171 218.5,167.838 218,180.5C 215.215,192.282 208.381,200.782 197.5,206C 168.702,213.115 151.368,202.282 145.5,173.5C 145.5,163.167 145.5,152.833 145.5,142.5C 145.5,141.833 145.833,141.5 146.5,141.5 Z"/></g>
<g><path style="opacity:1" fill="#f2f2f2" d="M 73.5,142.5 C 97.5,142.5 121.5,142.5 145.5,142.5C 145.5,152.833 145.5,163.167 145.5,173.5C 143.227,195.106 131.227,207.106 109.5,209.5C 91.5056,207.926 79.6723,198.592 74,181.5C 73.5001,168.504 73.3334,155.504 73.5,142.5 Z"/></g>
<g><path style="opacity:1" fill="#babbc1" d="M 437.5,142.5 C 437.833,142.5 438.167,142.5 438.5,142.5C 438.333,155.171 438.5,167.838 439,180.5C 444.471,198.646 456.638,208.313 475.5,209.5C 475.5,285.5 475.5,361.5 475.5,437.5C 468.922,438.46 462.255,438.793 455.5,438.5C 359.833,438.5 264.167,438.5 168.5,438.5C 168.5,438.167 168.5,437.833 168.5,437.5C 251.833,437.5 335.167,437.5 418.5,437.5C 418.5,421.5 418.5,405.5 418.5,389.5C 423.511,389.666 428.511,389.499 433.5,389C 435.667,388.167 437.167,386.667 438,384.5C 438.667,341.833 438.667,299.167 438,256.5C 437.065,253.898 435.232,252.398 432.5,252C 427.845,251.501 423.179,251.334 418.5,251.5C 418.5,235.833 418.5,220.167 418.5,204.5C 428.266,199.314 434.432,191.314 437,180.5C 437.5,167.838 437.667,155.171 437.5,142.5 Z"/></g>
<g><path style="opacity:1" fill="#06c6c8" d="M 162.5,252.5 C 145.833,252.5 129.167,252.5 112.5,252.5C 112.5,314.5 112.5,376.5 112.5,438.5C 96.8333,438.5 81.1667,438.5 65.5,438.5C 65.0076,377.083 65.5076,315.75 67,254.5C 68.1711,253.107 69.6711,252.273 71.5,252C 102.003,251.169 132.336,251.336 162.5,252.5 Z"/></g>
<g><path style="opacity:1" fill="#10b0c0" d="M 162.5,252.5 C 165.292,252.452 167.125,253.785 168,256.5C 168.5,316.832 168.667,377.166 168.5,437.5C 168.5,437.833 168.5,438.167 168.5,438.5C 149.833,438.5 131.167,438.5 112.5,438.5C 112.5,376.5 112.5,314.5 112.5,252.5C 129.167,252.5 145.833,252.5 162.5,252.5 Z"/></g>
<g><path style="opacity:1" fill="#07c6c8" d="M 382.5,251.5 C 382.5,297.5 382.5,343.5 382.5,389.5C 323.166,389.667 263.832,389.5 204.5,389C 201.898,388.065 200.398,386.232 200,383.5C 199.333,341.167 199.333,298.833 200,256.5C 201.227,254.274 203.061,252.774 205.5,252C 264.499,251.5 323.499,251.333 382.5,251.5 Z"/></g>
<g><path style="opacity:1" fill="#11b0c0" d="M 382.5,251.5 C 394.5,251.5 406.5,251.5 418.5,251.5C 423.179,251.334 427.845,251.501 432.5,252C 435.232,252.398 437.065,253.898 438,256.5C 438.667,299.167 438.667,341.833 438,384.5C 437.167,386.667 435.667,388.167 433.5,389C 428.511,389.499 423.511,389.666 418.5,389.5C 406.5,389.5 394.5,389.5 382.5,389.5C 382.5,343.5 382.5,297.5 382.5,251.5 Z"/></g>
<g><path style="opacity:1" fill="#f8fcfd" d="M 135.5,328.5 C 140.742,327.271 144.575,328.937 147,333.5C 147.667,339.167 147.667,344.833 147,350.5C 145.171,356.158 141.337,357.992 135.5,356C 133.513,354.681 132.346,352.848 132,350.5C 131.333,345.167 131.333,339.833 132,334.5C 132.926,332.308 134.093,330.308 135.5,328.5 Z"/></g>
<g><path style="opacity:0.988" fill="#8b8996" d="M 35.5,437.5 C 45.4176,438.474 55.4176,438.807 65.5,438.5C 81.1667,438.5 96.8333,438.5 112.5,438.5C 131.167,438.5 149.833,438.5 168.5,438.5C 264.167,438.5 359.833,438.5 455.5,438.5C 455.5,453.833 455.5,469.167 455.5,484.5C 304.166,484.667 152.833,484.5 1.5,484C 0.955796,483.283 0.28913,482.783 -0.5,482.5C -0.5,471.5 -0.5,460.5 -0.5,449.5C 1.22399,444.606 4.55732,441.106 9.5,439C 18.0836,437.59 26.7502,437.09 35.5,437.5 Z"/></g>
<g><path style="opacity:1" fill="#706f7f" d="M 475.5,437.5 C 483.174,437.334 490.841,437.5 498.5,438C 504.942,439.617 509.275,443.45 511.5,449.5C 511.5,460.5 511.5,471.5 511.5,482.5C 510.711,482.783 510.044,483.283 509.5,484C 491.503,484.5 473.503,484.667 455.5,484.5C 455.5,469.167 455.5,453.833 455.5,438.5C 462.255,438.793 468.922,438.46 475.5,437.5 Z"/></g>
</svg>
